<svg xmlns="http://www.w3.org/2000/svg"  viewBox="0 0 48 48" width="1000px" height="1000px"><path fill="#9fa8da" d="M47.1,33.6L47.1,33.6l-5.2-18.4c-0.8-2.4-3-4-5.5-4c-3.6,0-6.3,3.2-5.8,6.7l0.1,1.4l0,0.3	c-2.3-1.4-5.2-1.4-7.6,0l0-0.3l0.1-1.4c0.5-3.5-2.2-6.7-5.8-6.7c-2.5,0-4.7,1.6-5.5,4L6.9,33.6l0,0c-0.3,0.7-0.4,1.5-0.4,2.4	c0,4.1,3.4,7.5,7.5,7.5c4.1,0,7.5-3.3,7.5-7.5l0.2-2c2.3,1.1,4.8,1.4,7.2,1c1.1-0.2,3.8,3.3,4.3,4.3c1.2,2.4,3.8,4.1,6.7,4.1	c4.1,0,7.5-3.4,7.5-7.5C47.5,35.2,47.3,34.4,47.1,33.6z"/><path fill="none" stroke="#18193f" stroke-linecap="round" stroke-linejoin="round" stroke-miterlimit="10" stroke-width="3" d="M7.4,13.5l0.6-2.3c0.8-2.4,3-4,5.5-4h0c3.6,0,6.3,3.2,5.8,6.7l-0.1,1.4"/><line x1="2.9" x2="5.9" y1="29.6" y2="19.1" fill="none" stroke="#18193f" stroke-linecap="round" stroke-linejoin="round" stroke-miterlimit="10" stroke-width="3"/><circle cx="10" cy="32" r="7.5" fill="none" stroke="#18193f" stroke-miterlimit="10" stroke-width="3"/><path fill="none" stroke="#18193f" stroke-linecap="round" stroke-linejoin="round" stroke-miterlimit="10" stroke-width="3" d="M39.7,17.3l-1.8-6.2c-0.8-2.4-3-4-5.5-4h0c-3.6,0-6.3,3.2-5.8,6.7l0.2,1.3"/><line x1="43.1" x2="40.9" y1="29.6" y2="21.8" fill="none" stroke="#18193f" stroke-linecap="round" stroke-linejoin="round" stroke-miterlimit="10" stroke-width="3"/><path fill="none" stroke="#18193f" stroke-miterlimit="10" stroke-width="3" d="M28.5,32c0,4.1,3.4,7.5,7.5,7.5s7.5-3.4,7.5-7.5s-3.4-7.5-7.5-7.5S28.5,27.9,28.5,32"/><path fill="none" stroke="#18193f" stroke-linecap="round" stroke-linejoin="round" stroke-miterlimit="10" stroke-width="3" d="M19.3,15.3c2.3-1.4,5.2-1.4,7.5,0"/><path fill="none" stroke="#18193f" stroke-linecap="round" stroke-linejoin="round" stroke-miterlimit="10" stroke-width="3" d="M16.9,28.9c3.7,2.4,8.5,2.4,12.2,0"/></svg>